<?xml version="1.0" encoding="utf-8"?>
<!-- Generator: Adobe Illustrator 22.1.0, SVG Export Plug-In . SVG Version: 6.00 Build 0)  -->
<svg version="1.1" id="Layer_1" xmlns="http://www.w3.org/2000/svg" xmlns:xlink="http://www.w3.org/1999/xlink" x="0px" y="0px"
	 viewBox="0 0 1920 1080" style="enable-background:new 0 0 1920 1080;" xml:space="preserve">
<style type="text/css">
	.st0{fill:#FFFFFF;}
	.locales{
	fill:#b3b3b3;
	opacity: 0.1;
    }
    .locales:hover{
	opacity: 0.7;
    }
</style>
<image style="overflow:visible;" width="1920" height="1080" xlink:href="nivelestodos.jpg">
</image>
<polygon class="locales" points="597,812 622.5,842.5 545,880.5 520,846.2 536,839 544.8,851.6 576.3,836.1 569.1,825.1 "/>
<polygon class="locales" points="534.8,837.7 491.6,858.9 473.8,833.1 469.1,829.7 582.2,777.5 591,796.3 589.8,799.4 528.4,828.1 "/>
<polygon class="locales" points="579.6,775.2 526,755.9 439.2,811.6 466,828.1 "/>
<polygon class="locales" points="465.8,662.3 377.3,699.8 388.5,722.3 486.5,704 "/>
<polygon class="locales" points="464,660 375.3,697.5 351.7,656.7 386.5,642 392.5,650.2 406.3,644.5 415,655.5 430,651.3 427.7,647.2 
	452.8,637.3 "/>
<polygon class="locales" points="447.8,626.8 440.5,611.2 414.3,621.5 424.2,635.3 "/>
<polygon class="locales" points="358.5,641.7 346.7,646.5 293.2,614.3 286.8,589.3 327.7,573.8 283.8,511.8 413.5,501.8 471.2,573.3 
	441,608 409.2,621.3 405.2,618.8 393.5,622.3 377.5,601.2 354.5,610.2 366.3,629.2 355.8,635.3 "/>
<polygon class="locales" points="417.2,501.8 491.8,495 530,540 474.8,571 "/>
<polygon class="locales" points="494.3,495 543,490.7 577.3,528.5 534,539.3 "/>
<polygon class="locales" points="545.2,489.8 593.5,485.3 623.3,517.5 580,527.7 "/>
<polygon class="locales" points="596.7,485.3 625.3,516.3 655.8,522.2 673.2,497 706.7,483.7 699.5,476.2 "/>
<polygon class="locales" points="658,523.8 675.3,498.3 708.3,485.3 719.5,497 684.7,511.7 707.7,535 686.8,542.5 668.7,525.8 "/>
<polygon class="locales" points="698.3,551.3 713.7,565.2 776.5,538.3 759.7,522.2 739.3,530.8 739.2,533.2 "/>
<polygon class="locales" points="708.3,468.7 761.7,522.2 823.5,495.4 787.7,461.3 "/>
<polygon class="locales" points="789.8,461.3 844.7,455.8 936.5,538 893.3,557.3 "/>
<polygon class="locales" points="865.8,534.3 892.2,558.5 854.5,575.3 829.3,550.3 "/>
<polygon class="locales" points="826.7,551.5 789.8,567.7 813.7,591.8 851.2,576.3 "/>
<polygon class="locales" points="787,568.5 742,587.8 769.2,612.3 811.2,593.7 "/>
<polygon class="locales" points="778.5,622.2 822,604 837.7,619 795.7,638.3 "/>
<polygon class="locales" points="823.8,603 899.7,569.2 929.5,597.8 935.2,596.2 1005,661.3 877.5,723.5 796,639.7 840.5,618.8 "/>
<polygon class="locales" points="783,733.5 679.7,781.5 639.3,731.8 735.5,699.7 735.5,695.2 748.8,689.2 "/>
<polygon class="locales" points="1046,550.8 1020.8,563.2 953.7,491.5 1019,449.3 1069.2,489.8 1026.7,508.8 1035.3,516.7 1015.5,525.7 
	"/>
<polygon class="locales" points="1047.5,524.8 1066,541.5 1109,521.8 1080.2,497.8 1074.5,500.5 1085,509.2 1059.7,521 1057.5,519.7 "/>
<polygon class="locales" points="907.7,358.7 967.8,409.8 886.2,424.8 829,368.3 844.3,361.8 850.7,368.5 863.2,363 868.8,369.3 
	879.8,365 885.3,370.3 896.3,365.8 894.2,362.5 "/>
<polygon class="locales" points="896.5,350.3 889,354.2 870.5,339.8 857.8,344.8 842.7,332.8 825.8,339.8 845.3,358.7 828.2,366.5 
	772,342.5 765.9,334.5 860.7,300.2 890,323.3 878.3,332.5 "/>
<polygon class="locales" points="763,332.7 715.7,261.8 866,250.5 927.3,296 893,321.5 861.7,297.7 "/>
<polygon class="locales" points="869.7,250.5 889,249.3 890.2,257 902.3,257 902.3,252.3 919.5,251.8 952.8,277.2 928.5,295 "/>
<polygon class="locales" points="922.3,250.5 965,248.2 976.5,273.5 954.3,275 "/>
<polygon class="locales" points="967.8,248.2 1010.2,244.2 1022.7,269.5 979.2,273.5 "/>
<polygon class="locales" points="1013,244.2 1025,268.7 1068.7,265.5 1056.2,241 "/>
<polygon class="locales" points="1058.5,241 1105.3,237.7 1128.7,253 1100.3,264.2 1126.2,281.3 1118.3,284.8 1089.3,264.3 
	1070.8,264.7 "/>
<polygon class="locales" points="1112,231.3 1182.7,226 1260.2,274.3 1163.2,313.8 1131.2,292.7 1173.8,272.2 "/>
<polygon class="locales" points="1185,226 1233.8,222.3 1338.7,284.8 1313.8,296.5 1328.7,306.5 1320.7,310.3 "/>
<polygon class="locales" points="1263.8,284.8 1174.7,320.7 1201.7,339.4 1238.4,325.4 1255.2,337.1 1309.9,313.8 "/>
<polygon class="locales" points="1237.8,327.9 1204.7,341.2 1221.3,352.1 1253.4,338.4 "/>
<polygon class="locales" points="1234.5,360.3 1333.1,318.2 1370.8,342.2 1353.8,350.3 1344.9,345 1261.8,379.6 "/>
<polygon class="locales" points="1266.1,381.9 1345.4,347.8 1389.4,375.3 1418.7,362.3 1438.1,374.8 1328.3,424.5 "/>
<polygon class="locales" points="1218.7,408.9 1126.3,438.5 1186.1,472.9 1250.8,434.9 "/>
<polygon class="locales" points="1345.7,81.6 1139,93.8 1211.5,156.6 1271.6,177 1290.5,172.6 1261.8,155.6 1275.7,150.6 1300.3,163.8 
	1321.4,157.8 1315.1,153.7 1329.9,118.1 1356.4,100.2 "/>
<polygon class="locales" points="1349.8,81.6 1358.3,97.9 1419.1,97.9 1407.1,77.8 "/>
<polygon class="locales" points="1409.9,77.8 1442.7,75.6 1457.9,97.9 1421.9,97.9 "/>
<polygon class="locales" points="1445.2,75.6 1473,73.7 1506.4,90.4 1483.1,97.9 1460.4,97.9 "/>
<polygon class="locales" points="1475.8,72.4 1593.3,64.5 1671.5,97.9 1566.9,141.1 1521.5,119.1 1551.4,104.2 1518,86.8 1508.6,89.4 
	"/>
<polygon class="locales" points="1569.7,143 1673.4,100.8 1834.1,172.3 1783.7,195.3 1751.5,180.8 1700.5,204.4 "/>
</svg>
